<svg xmlns="http://www.w3.org/2000/svg" width="17" height="15" viewBox="0 0 17 15">
    <path fill="none" fill-rule="evenodd" stroke="#CCC" stroke-linecap="round" stroke-linejoin="round" stroke-width="1.6" d="M7.466 2.17c.277.272.644.422 1.034.422s.757-.15 1.034-.422A4.066 4.066 0 0 1 12.354 1c.494 0 .974.097 1.426.289 1.607.68 2.523 2.537 2.129 4.317-.534 2.416-3.191 4.835-6.874 8.187a.793.793 0 0 1-1.075-.004C4.282 10.44 1.625 8.022 1.091 5.606c-.394-1.78.522-3.636 2.13-4.317A3.63 3.63 0 0 1 4.646 1c1.036 0 2.064.427 2.82 1.17z"/>
</svg>
