<svg xmlns="http://www.w3.org/2000/svg" width="19" height="17" viewBox="0 0 19 17">
    <path fill="#2962FF" fill-rule="evenodd" stroke="#FFF" stroke-linecap="round" stroke-linejoin="round" stroke-width="1.6" d="M9.027 2.6a.67.67 0 0 0 .473.192c.18 0 .346-.068.473-.192a4.866 4.866 0 0 1 3.382-1.4c.6 0 1.186.119 1.737.352 1.968.834 3.074 3.076 2.598 5.227-.508 2.3-1.943 3.897-7.117 8.606a1.593 1.593 0 0 1-2.151-.004C3.254 10.677 1.819 9.079 1.31 6.779c-.476-2.15.63-4.393 2.598-5.227A4.43 4.43 0 0 1 5.646 1.2c1.247 0 2.476.51 3.38 1.4z"/>
</svg>
