<svg xmlns="http://www.w3.org/2000/svg" width="30" height="26" viewBox="0 0 30 26">
    <path fill="#000" fill-opacity=".4" fill-rule="evenodd" stroke="#FFF" stroke-linecap="round" stroke-linejoin="round" stroke-width="2" d="M7.806 1c1.933 0 3.852.788 5.264 2.162.517.5 1.202.777 1.93.777a2.75 2.75 0 0 0 1.93-.779C18.342 1.788 20.262 1 22.195 1c.921 0 1.816.179 2.661.533 3 1.257 4.71 4.684 3.974 7.971-.996 4.46-5.957 8.926-12.831 15.114a1.501 1.501 0 0 1-2.006-.007C7.126 18.43 2.166 13.963 1.17 9.503c-.735-3.287.974-6.714 3.975-7.97A6.842 6.842 0 0 1 7.806 1"/>
</svg>
