<svg xmlns="http://www.w3.org/2000/svg" width="320" height="78" viewBox="0 0 320 78">
    <defs>
        <filter id="a" width="111.6%" height="156.5%" x="-5.8%" y="-28.2%" filterUnits="objectBoundingBox">
            <feOffset in="SourceAlpha" result="shadowOffsetOuter1"/>
            <feGaussianBlur in="shadowOffsetOuter1" result="shadowBlurOuter1" stdDeviation="4.5"/>
            <feColorMatrix in="shadowBlurOuter1" result="shadowMatrixOuter1" values="0 0 0 0 0 0 0 0 0 0 0 0 0 0 0 0 0 0 0.20121285 0"/>
            <feMerge>
                <feMergeNode in="shadowMatrixOuter1"/>
                <feMergeNode in="SourceGraphic"/>
            </feMerge>
        </filter>
    </defs>
    <g fill="#FFF" fill-opacity=".7" fill-rule="evenodd" filter="url(#a)" transform="translate(9 7)">
        <path d="M36.34 31.511a31.754 31.754 0 0 0-3.935-2.434 88.356 88.356 0 0 0-4.105-2.031 38.4 38.4 0 0 1-3.326-1.73c-1.183-.709-1.952-1.4-2.256-2.028a1.348 1.348 0 0 1-.155-.606v-.214c0-.655.192-1.033.709-1.403.756-.539 1.696-.801 2.866-.801.707 0 1.374.08 2 .226a9.27 9.27 0 0 1 1.717.49c.366.14.73.3 1.081.492.225.118.421.258.625.39.141.092.293.171.425.27.327.235.916.755.916.755l4.25-4.232c-.429-.6-1.44-1.588-1.44-1.588-1.786-1.684-3.991-2.75-6.588-3.18-.865-.14-1.77-.216-2.722-.216H26.4c-2.865 0-5.345.688-7.379 2.036-2.345 1.555-3.584 3.91-3.584 6.802v.305a7.69 7.69 0 0 0 .65 3.093c.331.76.779 1.49 1.363 2.182 1.14 1.348 2.575 2.473 4.267 3.345 1.38.714 2.891 1.49 4.524 2.322 1.749.889 3.202 1.66 4.434 2.333a8.434 8.434 0 0 1 2.617 2.21c.137.18.258.358.362.54.308.546.462 1.122.462 1.742h-.002v.258c0 1.137-.983 2.35-2.136 3.115-1.218.808-3.353 1.29-4.994 1.29H7.094V15.7l8.345-8.31v-.003l-3.22-6.8L0 12.754v35.914a3.632 3.632 0 0 0 3.637 3.624h22.96c.244 0 .477-.018.714-.029.098-.002.19-.004.293-.008.145-.006.294-.006.439-.016.196-.012.382-.04.576-.059.17-.012.341-.033.513-.049.09-.008.18-.014.266-.026.004 0 .006 0 .01-.002.153-.019.294-.05.447-.076.172-.026.344-.059.515-.085.119-.024.241-.039.358-.063h.016c.066-.016.133-.035.198-.055.366-.077.728-.163 1.08-.264h.001c.013 0 .017-.004.025-.01a15.47 15.47 0 0 0 3.478-1.479c.355-.207.702-.43 1.042-.669 3.026-2.12 4.56-5.03 4.56-8.65v-.43a9.793 9.793 0 0 0-1.422-5.144 12.374 12.374 0 0 0-3.365-3.667M189.06 31.426a31.861 31.861 0 0 0-3.968-2.444 91.298 91.298 0 0 0-4.139-2.04 38.39 38.39 0 0 1-3.363-1.737c-1.592-.945-2.432-1.864-2.432-2.644v-.214c0-.658.196-1.038.714-1.41.765-.54 1.712-.804 2.895-.804.712 0 1.384.08 2.02.227.94.167 1.898.488 2.82.986.753.4 1.415.882 1.986 1.421l4.293-4.249c-.441-.602-1.458-1.595-1.458-1.595-2.406-2.252-5.557-3.41-9.395-3.41-2.895 0-5.396.69-7.448 2.044-2.366 1.562-3.617 3.927-3.617 6.83v.307c0 1.93.684 3.714 2.033 5.296 1.147 1.354 2.596 2.483 4.302 3.359 1.396.717 2.92 1.497 4.565 2.332 1.77.892 3.238 1.666 4.475 2.342 1.056.58 1.947 1.325 2.644 2.22.557.712.829 1.459.829 2.29v.26c0 1.394-.57 2.447-1.798 3.31-1.514 1.057-3.28 1.575-5.4 1.575-2.191 0-3.996-.398-5.377-1.182-1.708-.955-4.228-3.348-5.007-5.515-1.155 1.138-4.72 4.67-4.72 4.67.144.651 2.202 3.234 2.202 3.234 2.994 3.588 7.193 5.407 12.476 5.407 3.947 0 7.345-.978 10.098-2.902 3.059-2.13 4.601-5.051 4.601-8.685v-.431c0-1.86-.478-3.602-1.427-5.166a12.45 12.45 0 0 0-3.405-3.682"/>
        <path d="M165.763 48.585l-.023-.033-.018-.02c-1.446-1.8-2.105-2.826-2.43-3.459-.015.004-.034.01-.047.01a3.57 3.57 0 0 1-.685.074c-2.054 0-3.72-1.644-3.72-3.657V25.054h6.307v-7.132h-6.306v-5.583h-7.253v29.518h.018c.028.793.14 1.56.328 2.297.015.042.021.083.032.126a10.726 10.726 0 0 0 .782 2.03c.016.035.033.064.052.103.096.187.202.372.31.553.043.067.087.137.128.21.117.176.23.355.35.523h.003c.199.278.406.543.625.8.004 0 .01.004.01.006.442.503.926.976 1.455 1.393v.002c.027.023.05.039.077.055.243.192.491.374.753.537v.004c.079.051.158.096.238.144.01.008.023.014.035.02.205.124.404.247.613.36h.004c.104.055.22.103.328.154a10.912 10.912 0 0 0 2.78.919c.18.03.356.053.538.082a11.283 11.283 0 0 0 1.513.117c.389 0 .767-.031 1.145-.07.09-.008.184-.025.27-.035.313-.041.616-.092.921-.158.06-.01.126-.023.184-.041 1.06-.24 2.044-.652 2.959-1.172-.81-.674-1.574-1.399-2.276-2.231M123.044 32.312c0-5.944 4.74-10.786 10.574-10.786 1.658 0 3.299.403 4.776 1.168l-14.21 14.492a10.998 10.998 0 0 1-1.14-4.874m10.574 10.79c-1.619 0-3.223-.382-4.663-1.103l14.462-14.758 4.595-4.693-.15-.221c-3.234-4.785-8.558-7.638-14.244-7.638-9.533 0-17.283 7.904-17.283 17.623 0 9.724 7.75 17.63 17.283 17.63 5.796 0 11.175-2.939 14.394-7.872l.05-.079v-9.177l-6.819 6.963c-2.019 2.145-4.726 3.325-7.625 3.325M90.139 32.312c0-5.944 4.747-10.786 10.578-10.786 1.658 0 3.301.403 4.779 1.168L91.28 37.186a10.996 10.996 0 0 1-1.141-4.874m22.94 3.36l-.102-.62-4.634 4.725c-2.017 2.145-4.725 3.325-7.626 3.325a10.46 10.46 0 0 1-4.666-1.103l14.469-14.758 4.592-4.693-.148-.221c-3.234-4.785-8.56-7.638-14.247-7.638-9.535 0-17.285 7.904-17.285 17.623 0 9.724 7.75 17.63 17.285 17.63 5.752 0 11.115-2.913 14.339-7.789l.104-.158-.086-.173a20.814 20.814 0 0 1-1.995-6.15M78.312 15.93l-9.813 21.939-2.61-5.76 7.237-16.245h-7.463l-3.376 7.586-3.394-7.586h-7.46l7.238 16.245-2.618 5.76-9.804-22.005h-7.47l15.818 34.078h2.914l4.766-9.912 4.76 9.912h2.933L85.782 15.93zM259.696 12.339h-14.1l7.048 15.276z"/>
        <path d="M261.688 17.175l-3.004 6.393c2.76 1.918 4.575 5.108 4.575 8.725 0 5.86-4.758 10.624-10.614 10.624-5.85 0-10.61-4.763-10.61-10.624 0-3.714 1.91-6.98 4.802-8.88l-3.004-6.374c-5.261 3.052-8.814 8.744-8.814 15.254 0 9.732 7.905 17.649 17.626 17.649 9.723 0 17.627-7.917 17.627-17.649 0-6.42-3.454-12.027-8.584-15.118M289.983.588l-3.159 6.782v.047l8.206 8.31V45.23h-10.72c-1.956-.019-3.534-1.626-3.534-3.612V25.356h6.057V18.3h-6.057v-5.524h-6.978v29.198h.022a10.686 10.686 0 0 0 2.51 6.569c.012.014.024.026.034.042a11.954 11.954 0 0 0 .723.763c.21.2.424.4.653.585.048.04.098.071.148.108.211.168.424.331.645.477.074.055.152.096.229.145.205.128.411.256.628.376.099.055.207.1.316.15.194.1.387.2.588.283.133.057.273.105.41.156.18.063.361.138.544.195.163.051.337.09.508.13.165.041.323.094.488.126.215.043.432.074.65.098.13.022.256.049.384.06.352.04.709.056 1.068.056.07 0 .135-.01.205-.012l1.982.012h11.888c1.979 0 3.579-1.616 3.579-3.618v-35.9L289.983.589zM215.043 42.838c-5.446 0-9.928-4.058-10.583-9.3v-2.639c.655-5.24 5.137-9.296 10.583-9.296 5.893 0 10.678 4.753 10.678 10.618 0 5.864-4.785 10.617-10.678 10.617m0-28.15c-3.97 0-7.633 1.307-10.583 3.513v-3.512h-7.044v47.004h7.044V46.24a17.622 17.622 0 0 0 10.583 3.512c9.735 0 17.626-7.85 17.626-17.53 0-9.687-7.891-17.533-17.626-17.533"/>
    </g>
</svg>
