<svg xmlns="http://www.w3.org/2000/svg" width="32" height="31" viewBox="0 0 32 31">
    <g fill="none" fill-rule="evenodd" stroke="#222" stroke-linecap="round" stroke-linejoin="round" stroke-width="1.6">
        <path d="M17.235 18.787a3.352 3.352 0 1 0 6.705 0 3.352 3.352 0 0 0-6.705 0zM15.968 25.372a2.509 2.509 0 0 1 2.509-2.509h4.22a2.509 2.509 0 0 1 2.51 2.51v1.302M7.997 18.787a3.351 3.351 0 1 0 6.703.001 3.351 3.351 0 0 0-6.703 0z"/>
        <path d="M15.968 25.372a2.509 2.509 0 0 0-2.51-2.509h-4.22a2.509 2.509 0 0 0-2.51 2.51v1.302"/>
        <path d="M26.304 10.902h4.83v19.164H.8V10.9h4.832M24.66 4.288L20.996.8l-3.662 3.488M20.995.8v9.884M7.276 7.196l3.662 3.488L14.6 7.196M10.94 10.684V.8"/>
    </g>
</svg>
