<svg xmlns="http://www.w3.org/2000/svg" width="95" height="93" viewBox="0 0 95 93">
    <g fill="none" fill-rule="evenodd">
        <path fill="#2962FF" d="M72.721 72.818L61.25 66.783l-11.47 6.035 2.19-12.776L42.686 51l12.827-1.876L61.249 37.5l5.737 11.624L79.812 51l-9.282 9.042 2.191 12.776zm21.75-30.46L78.21 20.119A2.728 2.728 0 0 0 76.004 19H59.996c-.872 0-1.692.416-2.207 1.12L41.527 42.357A2.737 2.737 0 0 0 41 43.973v46.292A2.734 2.734 0 0 0 43.733 93h48.534A2.734 2.734 0 0 0 95 90.265V43.973c0-.581-.184-1.147-.529-1.615z" opacity=".3"/>
        <path stroke="#222" stroke-linecap="round" stroke-linejoin="round" stroke-width="3" d="M71.044 12H52.956L36 35.103V83h52V35.103z"/>
        <path stroke="#222" stroke-linecap="round" stroke-linejoin="round" stroke-width="3" d="M39.304 30.93l-9.989-13.716H15.217L2 35.367V73h33.26"/>
        <path stroke="#222" stroke-linecap="round" stroke-linejoin="round" stroke-width="3" d="M27.435 42.995s0-5.495-5.935-5.495-5.935 5.495-5.935 5.495 0 5.493 5.935 5.493 5.935 5.495 5.935 5.495 0 5.493-5.935 5.493-5.935-5.493-5.935-5.493M21.5 34.119v28.738M59.652 21.44a2.54 2.54 0 0 0 2.544 2.536 2.54 2.54 0 0 0 2.543-2.536 2.54 2.54 0 0 0-2.543-2.535 2.54 2.54 0 0 0-2.544 2.535zM62.196 2v18.595M18.957 24.821a2.54 2.54 0 0 0 2.543 2.536 2.54 2.54 0 0 0 2.543-2.536 2.54 2.54 0 0 0-2.543-2.535 2.54 2.54 0 0 0-2.543 2.535zM21.5 8.762v15.214M61.348 37.5l5.764 11.684L80 51.069l-9.327 9.09L72.875 73l-11.527-6.066L49.82 73l2.202-12.842-9.327-9.089 12.887-1.885z"/>
    </g>
</svg>
