<svg xmlns="http://www.w3.org/2000/svg" width="46" height="50" viewBox="0 0 46 50">
    <g fill="none" fill-rule="evenodd">
        <path stroke="#000" stroke-linecap="round" stroke-linejoin="round" stroke-width="1.44" d="M42.76 34.84V21.656C42.76 10.296 33.365 1 21.88 1S1 10.295 1 21.656V34.84"/>
        <path stroke="#000" stroke-linecap="round" stroke-linejoin="round" stroke-width="1.44" d="M6.68 42.04h.71a2.254 2.254 0 0 0 2.25-2.26v-9.162a2.254 2.254 0 0 0-2.25-2.258H1v7.975c0 3.15 2.542 5.705 5.68 5.705zM37.081 42.04h-.71a2.254 2.254 0 0 1-2.251-2.26v-9.162a2.254 2.254 0 0 1 2.25-2.258h6.39v7.975c0 3.15-2.543 5.705-5.679 5.705zM24.04 48.52h6.675c2.692 0 8.022.276 7.73-6.443"/>
        <path fill="#2962FF" fill-opacity=".3" d="M9.313 45.64h.77c1.346 0 2.437-1.118 2.437-2.498V33.016c0-1.378-1.09-2.496-2.437-2.496H3.16v8.814c0 3.482 2.754 6.306 6.153 6.306zM39.487 45.64h-.77c-1.346 0-2.437-1.118-2.437-2.498V33.016c0-1.378 1.09-2.496 2.437-2.496h6.923v8.814c0 3.482-2.754 6.306-6.153 6.306z"/>
    </g>
</svg>
