<svg xmlns="http://www.w3.org/2000/svg" xmlns:xlink="http://www.w3.org/1999/xlink" width="95" height="90" viewBox="0 0 95 90">
    <defs>
        <path id="a" d="M0 90h95V0H0z"/>
    </defs>
    <g fill="none" fill-rule="evenodd">
        <g fill="#2962FF" fill-opacity=".3">
            <path d="M35.737 17.981c-.385-.919-.745-1.757-1.085-2.515-.34-.758-.607-1.33-.805-1.721-.285.606-.603 1.294-.953 2.06a190.971 190.971 0 0 0-2.2 5.05c-.374.888-.725 1.754-1.053 2.598h8.313c-.306-.8-.657-1.684-1.052-2.647-.393-.963-.783-1.904-1.165-2.825M62.762 15.74c-.746-.701-1.699-1.254-2.859-1.654-1.16-.4-2.542-.601-4.14-.601-1.052 0-1.868.027-2.448.08-.58.056-.915.094-1.002.115v15.617c.132.044.481.092 1.052.146.568.054 1.368.08 2.398.08 2.98 0 5.258-.696 6.834-2.093 1.577-1.395 2.367-3.371 2.367-5.925 0-1.17-.181-2.246-.544-3.231a6.52 6.52 0 0 0-1.658-2.533"/>
            <path d="M68.184 26.293a9.608 9.608 0 0 1-2.613 3.621c-1.151.995-2.574 1.758-4.272 2.29-1.697.529-3.653.795-5.864.795-2.345 0-4.074-.05-5.192-.147-1.118-.097-1.73-.158-1.839-.179V12.512c0-.564.108-1.008.327-1.332.22-.325.609-.569 1.167-.73.558-.163 1.303-.266 2.234-.31a79.1 79.1 0 0 1 3.565-.064c2.082 0 3.949.264 5.602.795 1.654.531 3.057 1.288 4.207 2.273a9.821 9.821 0 0 1 2.646 3.604c.611 1.418.92 3.002.92 4.756 0 1.776-.297 3.373-.888 4.79zm-26.681 6.38c-.11-.259-.252-.627-.427-1.103s-.367-.99-.574-1.543c-.21-.552-.423-1.109-.641-1.67-.22-.564-.417-1.061-.592-1.495H28.261a171.865 171.865 0 0 0-2.235 5.811h-3.943c.548-1.45 1.162-3.014 1.842-4.69.677-1.68 1.39-3.399 2.135-5.163a418.534 418.534 0 0 1 4.7-10.698c.393-.867.841-1.467 1.346-1.803.503-.335 1.137-.503 1.906-.503.283 0 .563.032.837.098.273.065.514.14.723.226.208.088.383.168.526.244.142.077.225.125.246.147.351.605.805 1.505 1.363 2.694.56 1.191 1.162 2.527 1.808 4.01a420.001 420.001 0 0 1 1.988 4.643 348.027 348.027 0 0 1 1.89 4.58c.58 1.437 1.09 2.714 1.527 3.83.439 1.114.746 1.91.92 2.385h-4.337zM92.379 7.45H11.254c-1.447 0-2.621 1.16-2.621 2.59v34.646c0 1.431 1.174 2.591 2.62 2.591H92.38c1.447 0 2.62-1.16 2.62-2.59V10.04c0-1.43-1.173-2.59-2.62-2.59z"/>
        </g>
        <path stroke="#222" stroke-linecap="round" stroke-linejoin="round" stroke-width="3" d="M35 66c0 6.075 4.925 11 11 11s11-4.925 11-11c0-6.074-4.925-11-11-11s-11 4.926-11 11z"/>
        <path stroke="#222" stroke-linecap="round" stroke-linejoin="round" stroke-width="3" d="M63.65 89L86 61.702 80.55 57 55.06 83.093H37.94L12.45 57 7 61.702 29.351 89"/>
        <mask id="b" fill="#fff">
            <use xlink:href="#a"/>
        </mask>
        <path stroke="#222" stroke-linecap="round" stroke-linejoin="round" stroke-width="3" d="M1 42h90V1H1zM12.5 42v14M79.5 42v14" mask="url(#b)"/>
    </g>
</svg>
