<svg xmlns="http://www.w3.org/2000/svg" width="146" height="147" viewBox="0 0 146 147">
    <defs>
        <linearGradient id="a" x1="99.322%" x2="2.756%" y1="100%" y2="2.107%">
            <stop offset="0%" stop-color="#006DD4"/>
            <stop offset="100%" stop-color="#00CBD4"/>
        </linearGradient>
        <linearGradient id="b" x1="91.446%" x2="10.3%" y1="100%" y2="2.107%">
            <stop offset="0%" stop-color="#006DD4"/>
            <stop offset="100%" stop-color="#00CBD4"/>
        </linearGradient>
    </defs>
    <g fill="none" fill-rule="evenodd">
        <ellipse cx="73" cy="73.5" stroke="url(#a)" stroke-width="5.475" rx="70.262" ry="70.762"/>
        <path fill="url(#b)" d="M79.514 96.167c3.042 0 4.539 2.104 5.531 3.496.825 1.16 1.083 1.41 1.455 1.41.373 0 .633-.25 1.46-1.41.991-1.393 2.49-3.496 5.534-3.496 2.152 0 3.532 1.053 4.506 2.16v-54.4H47v54.41c.977-1.111 2.36-2.17 4.52-2.17 3.045 0 4.546 2.102 5.54 3.493.83 1.162 1.09 1.414 1.468 1.414.375 0 .635-.252 1.463-1.413.992-1.391 2.492-3.494 5.534-3.494 3.043 0 4.542 2.103 5.534 3.495.827 1.161 1.087 1.412 1.46 1.412.375 0 .634-.251 1.46-1.412.994-1.392 2.492-3.495 5.535-3.495zM100.51 106c-3.045 0-4.544-2.106-5.537-3.499-.828-1.162-1.088-1.413-1.462-1.413-.375 0-.635.251-1.462 1.413-.993 1.393-2.494 3.499-5.538 3.499s-4.543-2.106-5.535-3.5c-.826-1.16-1.085-1.412-1.456-1.412-.375 0-.635.251-1.462 1.413-.993 1.393-2.494 3.499-5.538 3.499-3.045 0-4.546-2.106-5.539-3.499-.827-1.162-1.087-1.413-1.462-1.413-.374 0-.633.251-1.462 1.413-.992 1.393-2.494 3.499-5.54 3.499-3.047 0-4.55-2.105-5.544-3.497-.83-1.164-1.091-1.415-1.47-1.415-.378 0-.638.251-1.469 1.415-.995 1.392-2.497 3.497-5.544 3.497-1.376 0-2.49-1.096-2.49-2.449V41.45C42 40.096 43.114 39 44.49 39h56.02c1.376 0 2.49 1.096 2.49 2.449v62.102c0 1.353-1.114 2.449-2.49 2.449zM86.517 80.382H59.483A2.473 2.473 0 0 1 57 77.92a2.473 2.473 0 0 1 2.483-2.463h27.034A2.473 2.473 0 0 1 89 77.919a2.473 2.473 0 0 1-2.483 2.463zm0 8.868H59.483A2.473 2.473 0 0 1 57 86.787a2.473 2.473 0 0 1 2.483-2.463h27.034A2.473 2.473 0 0 1 89 86.787a2.473 2.473 0 0 1-2.483 2.463zM67.631 71.515a2.522 2.522 0 0 1-1.779-.73l-8.115-8.037a2.472 2.472 0 0 1 0-3.522 2.53 2.53 0 0 1 3.557 0l6.337 6.275 16.076-15.919a2.533 2.533 0 0 1 3.557 0c.981.973.981 2.55 0 3.522L69.41 70.785a2.522 2.522 0 0 1-1.779.73z"/>
    </g>
</svg>
