<svg xmlns="http://www.w3.org/2000/svg" width="56" height="54" viewBox="0 0 56 54">
    <g fill="none" fill-rule="evenodd">
        <g fill="#2962FF" fill-opacity=".3">
            <path d="M21.69 11.39a61.83 61.83 0 0 0-.628-1.454 24.708 24.708 0 0 0-.467-.994 110.229 110.229 0 0 0-1.826 4.108 58.56 58.56 0 0 0-.608 1.5h4.813c-.178-.462-.38-.972-.61-1.529-.227-.556-.453-1.1-.674-1.632M37.336 10.095c-.432-.406-.983-.725-1.655-.956-.672-.232-1.472-.348-2.397-.348-.61 0-1.082.016-1.417.047a7.69 7.69 0 0 0-.58.066v9.023c.076.026.278.053.608.084.33.032.792.047 1.389.047 1.725 0 3.044-.403 3.957-1.21.912-.806 1.37-1.947 1.37-3.423 0-.676-.105-1.298-.315-1.867a3.767 3.767 0 0 0-.96-1.463"/>
            <path d="M40.475 16.192a5.552 5.552 0 0 1-1.513 2.092c-.666.575-1.49 1.015-2.473 1.323-.983.305-2.115.459-3.395.459-1.358 0-2.359-.028-3.006-.085a24.407 24.407 0 0 1-1.065-.103V8.229c0-.325.063-.582.19-.77.127-.187.352-.328.675-.421.323-.094.755-.154 1.293-.18.54-.024 1.228-.037 2.065-.037 1.205 0 2.286.153 3.243.46.958.307 1.77.744 2.435 1.313a5.675 5.675 0 0 1 1.532 2.083c.354.819.533 1.734.533 2.748 0 1.026-.172 1.948-.514 2.767zm-15.447 3.686c-.064-.15-.146-.362-.247-.637l-.333-.892a124.253 124.253 0 0 0-.713-1.829h-6.373a99.18 99.18 0 0 0-1.294 3.358h-2.283c.317-.838.673-1.742 1.066-2.71a214.748 214.748 0 0 1 2.577-6.087c.463-1.052.923-2.077 1.38-3.077.228-.5.487-.848.78-1.042.29-.193.658-.29 1.103-.29.164 0 .326.018.485.056.158.038.298.081.418.13.12.051.222.098.305.142.082.044.13.072.143.084.203.35.465.87.788 1.557.324.688.673 1.46 1.047 2.317.374.856.758 1.751 1.151 2.683a200.854 200.854 0 0 1 1.978 4.858c.254.645.432 1.104.533 1.379h-2.511zM54.483 5.305H7.515c-.837 0-1.517.67-1.517 1.496v20.018c0 .827.68 1.497 1.517 1.497h46.968c.837 0 1.517-.67 1.517-1.497V6.8c0-.826-.68-1.496-1.517-1.496z"/>
        </g>
        <path stroke="#222" stroke-linecap="round" stroke-linejoin="round" stroke-width="1.6" d="M21.263 39.133c0 3.51 2.851 6.356 6.369 6.356 3.517 0 6.368-2.845 6.368-6.356 0-3.51-2.851-6.355-6.368-6.355-3.518 0-6.369 2.846-6.369 6.355z"/>
        <path stroke="#222" stroke-linecap="round" stroke-linejoin="round" stroke-width="1.6" d="M37.85 52.422L50.79 36.65l-3.156-2.717L32.878 49.01h-9.914L8.208 33.933 5.053 36.65l12.94 15.772M1.579 25.267h52.105V1.577H1.58zM8.237 25.267v8.089M47.026 25.267v8.089"/>
    </g>
</svg>
