<svg xmlns="http://www.w3.org/2000/svg" width="22" height="22" viewBox="0 0 22 22">
    <g fill="none" fill-rule="evenodd" stroke="#222" stroke-linecap="round" stroke-linejoin="round" stroke-width="1.4">
        <path d="M11.772 13.12c0 1.195.938 2.163 2.095 2.163 1.157 0 2.094-.968 2.094-2.162s-.937-2.162-2.094-2.162c-1.157 0-2.095.968-2.095 2.162zM10.98 17.37c0-.895.702-1.62 1.568-1.62h2.638c.866 0 1.568.725 1.568 1.62v.84M5.998 13.12c0 1.195.938 2.163 2.095 2.163 1.156 0 2.094-.968 2.094-2.162s-.938-2.162-2.094-2.162c-1.157 0-2.095.968-2.095 2.162zM10.98 17.37c0-.895-.702-1.62-1.568-1.62H6.774c-.867 0-1.569.725-1.569 1.62v.84"/>
        <path d="M17.44 8.033h3.02v12.364H1.5V8.033h3.02M16.412 3.766l-2.289-2.25-2.289 2.25M14.122 1.516v6.377M5.548 5.643l2.288 2.25 2.29-2.25M7.838 7.893V1.516"/>
    </g>
</svg>
