<svg xmlns="http://www.w3.org/2000/svg" width="100" height="90" viewBox="0 0 100 90">
    <g fill="none" fill-rule="evenodd">
        <path fill="#2962FF" fill-opacity=".3" d="M73.637 21.857c-2.254 0-4.08-1.79-4.08-3.996s1.826-3.995 4.08-3.995c2.253 0 4.08 1.79 4.08 3.995 0 2.206-1.827 3.996-4.08 3.996zm-24.794-3.874a17.208 17.208 0 0 0-4.204-4.117 17.178 17.178 0 0 0 4.204-4.117 17.178 17.178 0 0 0 4.204 4.117 17.208 17.208 0 0 0-4.204 4.117zm-26.597 19.71l-10.21-9.996 10.21-9.997 10.209 9.997-10.21 9.996zM84.59 7H13.41C9.869 7 7 9.81 7 13.276v37.447C7 54.189 9.869 57 13.41 57h6.573v-2.825h.001c.024-5.61 4.672-10.15 10.404-10.15 5.734 0 10.382 4.54 10.405 10.15h.002V57h15.647a11.149 11.149 0 0 1-2.107-6.52c0-6.281 5.2-11.372 11.612-11.372 6.415 0 11.613 5.09 11.613 11.372 0 2.428-.782 4.673-2.106 6.52h9.136c3.54 0 6.41-2.81 6.41-6.277V13.276C91 9.809 88.13 7 84.59 7z"/>
        <path stroke="#222" stroke-linecap="round" stroke-linejoin="round" stroke-width="3" d="M54 52c0 6.076 5.373 11 12 11 6.628 0 12-4.924 12-11 0-6.074-5.372-11-12-11-6.627 0-12 4.926-12 11zM50 88V74.462C50 69.788 53.89 66 58.69 66h14.622C78.11 66 82 69.788 82 74.462V88M56 77l1 11M77 77l-1 11M41 69c2.39 1.324 4 3.824 4 6.69V88M16 88V75.69c0-2.866 1.61-5.366 4-6.69M23 80l-1 8M39 80l1 8M40.999 56.356C40.975 50.632 36.285 46 30.5 46c-5.786 0-10.476 4.632-10.5 10.356H20V74h21V56.356h-.001z"/>
        <path stroke="#222" stroke-linecap="round" stroke-linejoin="round" stroke-width="3" d="M8.117 60H2V2h96v58h-6.118M41 29s34.917-2.75 22.22-11"/>
        <path stroke="#222" stroke-linecap="round" stroke-linejoin="round" stroke-width="3" d="M23.5 39L34 29 23.5 19 13 29zM45 14a16.535 16.535 0 0 1 4 4 16.535 16.535 0 0 1 4-4 16.535 16.535 0 0 1-4-4 16.535 16.535 0 0 1-4 4zM70 18a4 4 0 1 0 8.002-.002A4 4 0 0 0 70 18z"/>
    </g>
</svg>
