<svg xmlns="http://www.w3.org/2000/svg" width="44" height="42" viewBox="0 0 45 44">
    <g fill="none" fill-rule="evenodd">
        <path fill="#2962FF" fill-opacity=".4" d="M44.815 42.378V38.22a4.688 4.688 0 0 0-4.687-4.687H10.512a4.688 4.688 0 0 0-4.687 4.687v4.158h38.99zM29.81 22.169a6.485 6.485 0 1 0 12.97 0 6.485 6.485 0 0 0-12.97 0M15.205 25.534a5.316 5.316 0 1 0 10.632 0 5.316 5.316 0 0 0-10.632 0M5.178 28.872a4.063 4.063 0 1 0 8.125 0 4.063 4.063 0 0 0-8.125 0"/>
        <path stroke="#000" stroke-linecap="round" stroke-linejoin="round" stroke-width="1.671" d="M13.156 27.218a4.915 4.915 0 1 0 9.83.001 4.915 4.915 0 0 0-9.83 0zM11.296 42.763v-5.886a3.68 3.68 0 0 1 3.68-3.68h6.191a3.68 3.68 0 0 1 3.681 3.68v5.886M2.413 30.953a3.735 3.735 0 1 0 7.47 0 3.735 3.735 0 0 0-7.47 0zM1 42.763v-4.472a2.795 2.795 0 0 1 2.796-2.796H8.5a2.796 2.796 0 0 1 2.796 2.796v4.472M27.19 23.193a6.189 6.189 0 1 0 6.188-6.19 6.188 6.188 0 0 0-6.188 6.19z"/>
        <path stroke="#000" stroke-linecap="round" stroke-linejoin="round" stroke-width="1.671" d="M24.848 42.763v-7.41a4.632 4.632 0 0 1 4.632-4.633h7.796a4.632 4.632 0 0 1 4.633 4.632v7.411M38.968 1L23.842 16.126l-7.96-7.96-11.94 11.94"/>
        <path stroke="#000" stroke-linecap="round" stroke-linejoin="round" stroke-width="1.671" d="M29.415 1h9.553v9.553"/>
    </g>
</svg>
