<svg xmlns="http://www.w3.org/2000/svg" xmlns:xlink="http://www.w3.org/1999/xlink" width="59" height="68" viewBox="0 0 59 68">
    <defs>
        <path id="a" d="M0 67.5h59V.5H0z"/>
    </defs>
    <g fill="none" fill-rule="evenodd">
        <path fill="#2962FF" fill-opacity=".3" d="M14 7h38a4 4 0 0 1 4 4v50a4 4 0 0 1-4 4H14a4 4 0 0 1-4-4V11a4 4 0 0 1 4-4zm36.944 31L28.336 50.557 26 55.77l5.733.73 22.61-12.555L50.944 38z"/>
        <path stroke="#000" stroke-linecap="round" stroke-linejoin="round" stroke-width="2" d="M42.709 65.5H5.444C3.541 65.5 2 63.932 2 61.998V5.002C2 3.068 3.541 1.5 5.444 1.5h42.11C49.457 1.5 51 3.068 51 5.002v25.775"/>
        <mask id="b" fill="#fff">
            <use xlink:href="#a"/>
        </mask>
        <path stroke="#000" stroke-linecap="round" stroke-linejoin="round" stroke-width="2" d="M10 26.5h10v-10H10zM25.717 16H42M25.717 25H42M10 33h32M10 43h19.5M10 52h11" mask="url(#b)"/>
        <path stroke="#000" stroke-linecap="round" stroke-linejoin="round" stroke-width="2" d="M50.944 38l3.399 5.945L31.733 56.5 26 55.77l2.336-5.213z"/>
    </g>
</svg>
