<svg xmlns="http://www.w3.org/2000/svg" width="180" height="180" viewBox="0 0 180 180">
    <defs>
        <linearGradient id="a" x1="100%" x2="2.107%" y1="100%" y2="2.107%">
            <stop offset="0%" stop-color="#006DD4"/>
            <stop offset="100%" stop-color="#00CBD4"/>
        </linearGradient>
        <linearGradient id="b" x1="100%" x2="2.107%" y1="70.831%" y2="30.047%">
            <stop offset="0%" stop-color="#006DD4"/>
            <stop offset="100%" stop-color="#00CBD4"/>
        </linearGradient>
    </defs>
    <g fill="none" fill-rule="evenodd">
        <circle cx="90" cy="90" r="87.262" stroke="url(#a)" stroke-width="5.475"/>
        <path fill="url(#b)" d="M56.02 81.307c1.493.278 2.475 1.703 2.194 3.183l-.564 2.972a2.745 2.745 0 0 1-3.213 2.175 2.728 2.728 0 0 1-2.193-3.183l.565-2.973c.28-1.48 1.714-2.452 3.211-2.174zm-6.647 20.253a2.745 2.745 0 0 1 3.211-2.174c1.493.279 2.475 1.704 2.193 3.183l-.564 2.973A2.745 2.745 0 0 1 51 107.716a2.728 2.728 0 0 1-2.193-3.184l.565-2.972zM95.78 91.283l44.716-26.978c-.026-.93-.32-1.77-.874-2.43-.768-.918-1.965-1.423-3.371-1.423H68.919c-2.802 0-5.601 1.944-6.783 4.492L95.78 91.283zm48.076-32.888c1.803 2.156 2.516 5.082 1.956 8.03l-9.343 49.16c-1.11 5.84-6.678 10.415-12.676 10.415H56.46c-3.501 0-6.52-1.571-8.28-4.312a2.711 2.711 0 0 1 .842-3.763 2.766 2.766 0 0 1 3.798.834c.73 1.137 2.057 1.79 3.64 1.79h67.333c3.326 0 6.656-2.735 7.271-5.972l8.2-43.146-42.258 25.494a2.765 2.765 0 0 1-3.134-.19L57.24 68.06c-.038-.03-.065-.066-.101-.097a2.689 2.689 0 0 1-.528-.617 2.806 2.806 0 0 1-.314-.721 2.568 2.568 0 0 1-.087-.522 2.647 2.647 0 0 1 .02-.549c.006-.046.004-.092.012-.138.012-.062.032-.122.044-.184l.013-.051C57.513 59.453 63.002 55 68.919 55h67.333c3.028 0 5.8 1.238 7.605 3.395zM49.521 79.158c-1.518 0-2.75-1.22-2.75-2.726 0-1.505 1.232-2.725 2.75-2.725h8.44c1.518 0 2.75 1.22 2.75 2.725 0 1.506-1.232 2.726-2.75 2.726h-8.44zm-4.239 18.08c-1.519 0-2.75-1.221-2.75-2.727 0-1.505 1.231-2.726 2.75-2.726H60.96c1.52 0 2.75 1.221 2.75 2.726 0 1.506-1.23 2.726-2.75 2.726H45.282zM69.5 112.59c0 1.506-1.231 2.726-2.75 2.726h-28c-1.519 0-2.75-1.22-2.75-2.726 0-1.505 1.231-2.726 2.75-2.726h28c1.519 0 2.75 1.22 2.75 2.726z"/>
    </g>
</svg>
