<svg xmlns="http://www.w3.org/2000/svg" width="180" height="180" viewBox="0 0 180 180">
    <defs>
        <linearGradient id="a" x1="100%" x2="2.107%" y1="100%" y2="2.107%">
            <stop offset="0%" stop-color="#006DD4"/>
            <stop offset="100%" stop-color="#00CBD4"/>
        </linearGradient>
        <linearGradient id="b" x1="100%" x2="2.107%" y1="75.046%" y2="26.009%">
            <stop offset="0%" stop-color="#006DD4"/>
            <stop offset="100%" stop-color="#00CBD4"/>
        </linearGradient>
    </defs>
    <g fill="none" fill-rule="evenodd">
        <circle cx="90" cy="90" r="87.262" stroke="url(#a)" stroke-width="5.475"/>
        <path fill="url(#b)" d="M55.894 60.385c-2.583 0-4.752 1.742-5.35 4.085L88.724 90.77l38.182-26.301c-.6-2.343-2.768-4.085-5.352-4.085h-65.66zm46.174 59.23a2.69 2.69 0 0 1 2.687 2.693 2.69 2.69 0 0 1-2.687 2.692H55.894C49.888 125 45 120.169 45 114.23V65.77v-.014l.003-.039C45.03 59.803 49.905 55 55.894 55h65.661c5.99 0 10.864 4.803 10.893 10.717l.002.039V93.403a2.69 2.69 0 0 1-2.687 2.692 2.69 2.69 0 0 1-2.687-2.692V70.887l-36.828 25.37a2.679 2.679 0 0 1-3.046 0l-36.828-25.37v43.344c0 2.969 2.477 5.384 5.52 5.384h46.174zm41.055-24.192a2.72 2.72 0 0 1 0 3.815l-22.27 22.528a2.643 2.643 0 0 1-3.77 0l-10.123-10.24a2.719 2.719 0 0 1 0-3.815 2.646 2.646 0 0 1 3.771 0l8.237 8.333 20.384-20.621a2.644 2.644 0 0 1 3.771 0z"/>
    </g>
</svg>
