<svg xmlns="http://www.w3.org/2000/svg" width="49" height="48" viewBox="0 0 49 48">
    <g fill="none" fill-rule="evenodd">
        <path fill="#2962FF" fill-opacity=".4" d="M31.634 18.963v-8.796c0-3.643-6.057-7.977-8.224-3.23l-5.892 13.047a17.21 17.21 0 0 0-1.525 7.082v17.725a2.758 2.758 0 0 0 2.758 2.758h22.446c2.228.025 4.134-1.57 4.468-3.738l3.084-19.79c.37-2.402-1.307-4.644-3.748-5.009a4.688 4.688 0 0 0-.721-.049H31.634z"/>
        <path stroke="#000" stroke-width="1.6" d="M27.612 14.914V6.118c0-3.643-6.057-7.977-8.224-3.23l-7.417 16.424v24.189h25.204c2.228.024 4.134-1.57 4.47-3.739l3.082-19.79c.37-2.402-1.307-4.644-3.747-5.009a4.587 4.587 0 0 0-.722-.049H27.612z"/>
        <path stroke="#000" stroke-width="1.6" d="M11.972 43.5H5.269c-2.468 0-4.47-1.969-4.47-4.398V23.71c0-2.428 2.002-4.397 4.47-4.397h6.703V43.5z"/>
    </g>
</svg>
