<svg xmlns="http://www.w3.org/2000/svg" width="16" height="14" viewBox="0 0 16 14">
    <path fill="none" fill-rule="evenodd" stroke="#222" d="M8.628 1.72A.89.89 0 0 1 8 1.975a.894.894 0 0 1-.627-.253A4.323 4.323 0 0 0 4.394.5a3.92 3.92 0 0 0-1.523.306C1.147 1.529.179 3.482.596 5.348c.451 2.022 1.78 3.512 6.577 7.834a1.234 1.234 0 0 0 1.654 0c3.924-3.536 5.167-4.808 6.032-6.415.26-.483.441-.952.545-1.419.417-1.866-.552-3.82-2.275-4.542A3.92 3.92 0 0 0 11.605.5a4.323 4.323 0 0 0-2.977 1.22zm0 0l-.002.002.004-.004-.002.002z"/>
</svg>
