<svg xmlns="http://www.w3.org/2000/svg" width="16" height="22" viewBox="0 0 16 22">
    <g fill="none" fill-rule="evenodd" stroke="#484848" stroke-linecap="round" stroke-linejoin="round">
        <path d="M12.233 19.481h-8.49c-1.696 0-3.07-1.435-3.07-3.206V3.91c0-1.772 1.374-3.207 3.07-3.207h8.49c1.695 0 3.069 1.435 3.069 3.207v12.364c0 1.771-1.374 3.206-3.069 3.206zM.674 4.95H15.3M.674 11.336H15.3M4.334 2.968h7.307M7.987 4.95v6.385"/>
        <path d="M2.153 15.308c0 .895.693 1.62 1.55 1.62.855 0 1.55-.725 1.55-1.62 0-.894-.695-1.62-1.55-1.62-.857 0-1.55.726-1.55 1.62zM10.722 15.308c0 .895.694 1.62 1.55 1.62.855 0 1.55-.725 1.55-1.62 0-.894-.695-1.62-1.55-1.62-.856 0-1.55.726-1.55 1.62zM1.204 21.824L3.08 19.48M14.77 21.824l-1.874-2.343"/>
    </g>
</svg>
