<svg xmlns="http://www.w3.org/2000/svg" width="50" height="46" viewBox="0 0 50 46">
    <g fill="none" fill-rule="evenodd" transform="translate(1 1)">
        <ellipse cx="28.44" cy="28.08" fill="#2962FF" fill-opacity=".3" rx="19.8" ry="15.12"/>
        <path stroke="#000" stroke-width="1.44" d="M47.13 20.295l-2.801-.61a12.884 12.884 0 0 0-2.627-4.939l1.629-5.379c.241-.8-.626-1.476-1.33-1.037l-4.857 3.028c-2.296-1.91-13.67-3.222-24.377 2.624-5.915 3.23-7.306 7.618-7.306 12.78 0 4.36 2.18 6.835 5.495 9.162L9.024 41.35c-.455 1.27.315 2.312 1.714 2.323l2.224.016c1.4.011 2.904-1.01 3.356-2.283l1.143-3.212c.238.013 13.495 1.026 15.485-.302l1.252 3.514c.453 1.273 1.954 2.294 3.355 2.283l2.224-.016c1.4-.011 2.168-1.052 1.716-2.323 0 0-2.247-6.185-2.386-6.388a15.175 15.175 0 0 0 4.915-7.039l3.108-.678c.647-.14 1.11-.72 1.11-1.387v-4.176c0-.668-.463-1.247-1.11-1.387z"/>
        <path fill="#000" d="M35.497 19.114a1.82 1.82 0 1 0 3.641 0 1.82 1.82 0 0 0-3.64 0"/>
        <path stroke="#000" stroke-linecap="round" stroke-linejoin="round" stroke-width="1.44" d="M16.383 17.294s5.45-2.731 10.923-2.731M.404 22.755s-2.526 5.69 5.057 4.345"/>
        <path stroke="#000" stroke-width="1.44" d="M13.653 5.007a5.005 5.005 0 1 0 10.01 0 5.005 5.005 0 0 0-10.01 0z"/>
    </g>
</svg>
