<svg xmlns="http://www.w3.org/2000/svg" width="53" height="49" viewBox="0 0 53 49">
    <g fill="none" fill-rule="evenodd" transform="translate(1 1)">
        <rect width="30.24" height="20.16" x="15.12" y="4.32" fill="#2962FF" fill-opacity=".3" rx="2.16"/>
        <path stroke="#222" stroke-linecap="round" stroke-linejoin="round" stroke-width="1.44" d="M33.12 37.8c0 2.585 2.257 4.68 5.04 4.68s5.04-2.095 5.04-4.68c0-2.585-2.257-4.68-5.04-4.68s-5.04 2.095-5.04 4.68zM31.68 46.8c0-1.591 1.576-2.88 3.52-2.88h5.922c1.943 0 3.518 1.289 3.518 2.88M20.16 37.8c0 2.585 2.257 4.68 5.04 4.68s5.04-2.095 5.04-4.68c0-2.585-2.257-4.68-5.04-4.68s-5.04 2.095-5.04 4.68zM18.72 46.8c0-1.591 1.576-2.88 3.518-2.88h5.924c1.942 0 3.518 1.289 3.518 2.88M7.2 37.8c0 2.585 2.257 4.68 5.04 4.68 2.784 0 5.04-2.095 5.04-4.68 0-2.585-2.256-4.68-5.04-4.68-2.783 0-5.04 2.095-5.04 4.68zM5.76 46.8c0-1.591 1.576-2.88 3.518-2.88h5.924c1.942 0 3.518 1.289 3.518 2.88M6.48 12.96c0 3.181 2.418 5.76 5.4 5.76 2.983 0 5.4-2.579 5.4-5.76 0-3.181-2.417-5.76-5.4-5.76-2.982 0-5.4 2.579-5.4 5.76z"/>
        <path stroke="#222" stroke-linecap="round" stroke-linejoin="round" stroke-width="1.44" d="M47.188 30.96H50.4V0H0v30.96h4.65v-6.628c0-2.29 1.835-4.145 4.1-4.145h6.9l11.614-5.254 1.211 1.977-8.725 7.422v6.628"/>
    </g>
</svg>
