<svg xmlns="http://www.w3.org/2000/svg" width="99" height="92" viewBox="0 0 99 92">
    <g fill="none" fill-rule="evenodd" transform="translate(2 2)">
        <rect width="57" height="37.908" x="28.5" y="8.123" fill="#2962FF" fill-opacity=".3" rx="4.5"/>
        <path stroke="#222" stroke-linecap="round" stroke-linejoin="round" stroke-width="3" d="M62.429 71.078c0 4.86 4.253 8.799 9.499 8.799 5.247 0 9.5-3.938 9.5-8.8 0-4.86-4.253-8.8-9.5-8.8-5.246 0-9.5 3.94-9.5 8.8zM59.714 88c0-2.992 2.97-5.415 6.634-5.415h11.163c3.664 0 6.632 2.423 6.632 5.415M38 71.078c0 4.86 4.254 8.799 9.501 8.799 5.245 0 9.499-3.938 9.499-8.8 0-4.86-4.254-8.8-9.499-8.8-5.247 0-9.501 3.94-9.501 8.8zM35.286 88c0-2.992 2.97-5.415 6.632-5.415h11.164c3.663 0 6.632 2.423 6.632 5.415M13.571 71.078c0 4.86 4.254 8.799 9.501 8.799 5.248 0 9.5-3.938 9.5-8.8 0-4.86-4.252-8.8-9.5-8.8-5.247 0-9.5 3.94-9.5 8.8zM10.857 88c0-2.992 2.97-5.415 6.632-5.415h11.165c3.662 0 6.632 2.423 6.632 5.415M12.214 24.37c0 5.98 4.558 10.83 10.18 10.83 5.621 0 10.177-4.85 10.177-10.83 0-5.982-4.556-10.832-10.177-10.832-5.622 0-10.18 4.85-10.18 10.831z"/>
        <path stroke="#222" stroke-linecap="round" stroke-linejoin="round" stroke-width="3" d="M88.945 58.215H95V0H0v58.215h8.764V45.752c0-4.304 3.46-7.793 7.728-7.793h13.006l21.893-9.88 2.283 3.718-16.446 13.955v12.463"/>
    </g>
</svg>
