<svg xmlns="http://www.w3.org/2000/svg" width="17" height="17" viewBox="0 0 17 17">
    <g fill="none" fill-rule="evenodd" stroke="#222" stroke-linecap="round" stroke-linejoin="round">
        <path d="M4.333 1h10.209C15.347 1 16 1.653 16 2.458v10.209c0 .806-.653 1.458-1.458 1.458H4.333a1.458 1.458 0 0 1-1.458-1.458V2.458C2.875 1.653 3.528 1 4.333 1z"/>
        <path d="M6.156 2.875a1.406 1.406 0 1 1 0 2.813 1.406 1.406 0 0 1 0-2.813zM16 9.097l-3.809-3.41-8.379 7.5"/>
        <path d="M13.188 14.646c0 .748-.607 1.354-1.355 1.354H2.846A1.846 1.846 0 0 1 1 14.154V5.166c0-.748.606-1.354 1.354-1.354"/>
    </g>
</svg>
