<svg xmlns="http://www.w3.org/2000/svg" width="34" height="39" viewBox="0 0 34 39">
    <g fill="none" fill-rule="evenodd">
        <path fill="#2962FF" fill-opacity=".4" d="M10.067 35.563c1.682 0 1.682 2.523 3.365 2.523 1.679 0 1.679-2.523 3.359-2.523s1.68 2.523 3.359 2.523 1.679-2.523 3.357-2.523c1.678 0 1.678 2.523 3.355 2.523 1.68 0 1.68-2.523 3.359-2.523 1.678 0 1.678 2.523 3.358 2.523V6.175H6.701v31.911c1.683 0 1.683-2.523 3.366-2.523z"/>
        <path stroke="#000" stroke-linecap="round" stroke-linejoin="round" stroke-width="1.678" d="M4.671 33.565c1.835 0 1.835 2.796 3.671 2.796 1.832 0 1.832-2.796 3.665-2.796 1.832 0 1.832 2.796 3.664 2.796 1.831 0 1.831-2.796 3.663-2.796 1.83 0 1.83 2.796 3.66 2.796 1.831 0 1.831-2.796 3.663-2.796 1.832 0 1.832 2.796 3.664 2.796V1H1v35.361c1.836 0 1.836-2.796 3.671-2.796zM8.33 11.78h14.66"/>
        <path stroke="#000" stroke-linecap="round" stroke-linejoin="round" stroke-width="1.678" d="M21.362 7.9l-2.684 8.624-2.61-6.73-2.61 6.73L10.774 7.9M8.33 22.13h14.66M8.33 26.443h14.66"/>
    </g>
</svg>
