<svg xmlns="http://www.w3.org/2000/svg" width="19" height="19" viewBox="0 0 19 19">
    <g fill="none" fill-rule="evenodd" stroke="#999" stroke-linecap="round" stroke-linejoin="round">
        <path d="M1 9.117V0h9v18"/>
        <path d="M1 17.978L19 18V6H9.989"/>
        <path d="M3 16c1.105 0 2-.814 2-1.944C5 12.43 3 10 3 10s-2 2.43-2 4.056C1 15.186 1.895 16 3 16zM2.5 13v5M3 2.5h2M6 2.5h2M3 5.5h2M6 5.5h2M11 8.5h2M15 8.5h2M11 11.5h2M15 11.5h2M3 8.5h2M6 8.5h2M6 10.5h2M6 13.5h2M13 18v-4h3v4"/>
    </g>
</svg>
