<svg xmlns="http://www.w3.org/2000/svg" width="51" height="50" viewBox="0 0 51 50">
    <g fill="none" fill-rule="evenodd">
        <path fill="#2962FF" fill-opacity=".4" d="M32.141 47.289V33.09c0-1.008.817-1.827 1.824-1.827H39.4c1.007 0 1.824.82 1.824 1.827v14.198a1.826 1.826 0 0 1-1.824 1.826h-5.434a1.826 1.826 0 0 1-1.824-1.826M20.348 14.425H5.378l-2.363 8.228c0 2.084 1.94 3.772 4.333 3.772 2.394 0 4.334-1.688 4.334-3.772 0 2.084 1.94 3.772 4.333 3.772 2.392 0 4.333-1.688 4.333-3.772 0 2.084 1.94 3.772 4.334 3.772 2.393 0 4.333-1.688 4.333-3.772v-8.228h-8.667z"/>
        <path stroke="#000" stroke-linecap="round" stroke-linejoin="round" stroke-width="1.6" d="M39.83 14.223c-1.968 0-3.56-1.55-3.56-3.467s1.592-3.467 3.56-3.467 3.56 1.55 3.56 3.467-1.592 3.467-3.56 3.467zm7.554-2.501c.04-.317.071-.64.071-.966 0-.327-.03-.65-.07-.966l2.15-1.64a.486.486 0 0 0 .122-.633l-2.034-3.431c-.126-.213-.39-.303-.62-.213l-2.532.994a7.71 7.71 0 0 0-1.718-.975l-.38-2.625a.52.52 0 0 0-.51-.416h-4.067a.51.51 0 0 0-.503.416l-.38 2.625a7.507 7.507 0 0 0-1.719.975l-2.532-.994a.514.514 0 0 0-.62.213l-2.034 3.431a.486.486 0 0 0 .122.633l2.145 1.64a7.64 7.64 0 0 0-.07.966c0 .326.03.649.07.966l-2.145 1.64a.485.485 0 0 0-.122.633l2.034 3.432a.51.51 0 0 0 .62.213l2.532-.996a7.714 7.714 0 0 0 1.718.977l.38 2.624a.51.51 0 0 0 .504.416h4.067a.51.51 0 0 0 .504-.416l.38-2.624a7.55 7.55 0 0 0 1.719-.977l2.531.996c.23.085.495 0 .621-.213l2.034-3.432a.487.487 0 0 0-.123-.634l-2.145-1.64zM11.95 23.963c-2.044 0-3.699-1.66-3.699-3.705v-8.083h7.4v8.083a3.703 3.703 0 0 1-3.7 3.705z"/>
        <path stroke="#000" stroke-linecap="round" stroke-linejoin="round" stroke-width="1.6" d="M19.35 23.963c-2.043 0-3.699-1.66-3.699-3.705v-8.083h7.4v8.083a3.702 3.702 0 0 1-3.7 3.705z"/>
        <path stroke="#000" stroke-linecap="round" stroke-linejoin="round" stroke-width="1.6" d="M30.45 20.258a3.703 3.703 0 0 1-3.699 3.705c-2.043 0-3.7-1.66-3.7-3.705v-8.083M4.55 23.963c2.044 0 3.7-1.66 3.7-3.705v-8.083H2.87L.85 20.258a3.702 3.702 0 0 0 3.7 3.705zM26.226 4.639H2.869v7.535M7.915 42.15h15.81V29.013H7.915zM28.77 46.865v-17.85h9.082v17.85"/>
        <path stroke="#000" stroke-linecap="round" stroke-linejoin="round" stroke-width="1.6" d="M2.869 23.626v23.24h40.365v-23.24"/>
    </g>
</svg>
