<svg xmlns="http://www.w3.org/2000/svg" width="16" height="21" viewBox="0 0 16 21">
    <g fill="none" fill-rule="evenodd" stroke="#999" stroke-linecap="round" stroke-linejoin="round">
        <path d="M12.063 18H3.936C2.314 18 1 16.7 1 15.097V3.902C1 2.299 2.314 1 3.936 1h8.127C13.685 1 15 2.299 15 3.902v11.195C15 16.7 13.685 18 12.063 18zM1.5 5.11h13M1.5 11.29h13M4.753 3.426h6.493M8 5.11v6.18"/>
        <path d="M3 14.5a1.499 1.499 0 1 0 3 0 1.5 1.5 0 1 0-3 0zM10 14.5a1.5 1.5 0 1 0 2.999.001A1.5 1.5 0 0 0 10 14.5zM1.971 20.462l1.666-1.992M14.029 20.462l-1.666-1.992"/>
    </g>
</svg>
