<svg xmlns="http://www.w3.org/2000/svg" xmlns:xlink="http://www.w3.org/1999/xlink" width="40" height="54" viewBox="0 0 40 54">
    <defs>
        <path id="a" d="M.76.16H25.1v11.09H.76z"/>
    </defs>
    <g fill="none" fill-rule="evenodd">
        <g transform="translate(8.914 42.375)">
            <mask id="b" fill="#fff">
                <use xlink:href="#a"/>
            </mask>
            <path fill="#2962FF" fill-opacity=".4" d="M21.453 11.25H4.408C2.393 11.25.76 9.601.76 7.566V2.218C.76 1.08 1.67.16 2.798.16h20.266c1.126 0 2.037.921 2.037 2.058v5.348c0 2.035-1.632 3.684-3.648 3.684" mask="url(#b)"/>
        </g>
        <path fill="#2962FF" fill-opacity=".4" d="M28.445 19h-14.89C12.145 19 11 17.795 11 16.309V12.69C11 11.205 12.146 10 13.555 10h14.89C29.855 10 31 11.205 31 12.691v3.618C31 17.795 29.856 19 28.445 19"/>
        <path stroke="#000" stroke-width="1.6" d="M30.005 39.16H4.771c-2.143 0-3.88-1.754-3.88-3.917V4.816C.891 2.653 2.628.9 4.771.9h25.234c2.143 0 3.879 1.753 3.879 3.916v30.427c0 2.163-1.736 3.917-3.879 3.917z"/>
        <path stroke="#000" stroke-width="1.6" d="M25.91 50.25H8.865c-2.014 0-3.648-1.649-3.648-3.684V39.16h24.342v7.406c0 2.035-1.633 3.684-3.649 3.684zM24.166 15.784H10.61c-1.284 0-2.327-1.052-2.327-2.349v-3.158c0-1.297 1.043-2.349 2.327-2.349h13.556a2.338 2.338 0 0 1 2.327 2.35v3.157a2.338 2.338 0 0 1-2.327 2.35z"/>
        <path stroke="#000" stroke-linecap="round" stroke-width="2" d="M8.29 23.944h2.195M16.291 23.944h2.195M24.298 23.944h2.195M8.29 31.642h2.195M16.291 31.642h2.195M24.298 31.642h2.195"/>
        <path stroke="#000" stroke-width="3" d="M22.457 39.16v11.09"/>
        <path stroke="#000" stroke-linecap="round" stroke-width="1.6" d="M38.312 6.018v28.728"/>
    </g>
</svg>
