<svg xmlns="http://www.w3.org/2000/svg" width="223" height="156" viewBox="0 0 223 156">
    <g fill="none" fill-rule="evenodd">
        <g stroke="#B1B1B1" stroke-linecap="round" stroke-linejoin="bevel" stroke-width="7">
            <path fill="#7FB6E9" d="M56.5 61C46.283 61 38 52.839 38 42.772V3h37v39.772C75 52.839 66.717 61 56.5 61z"/>
            <path fill="#FFF" d="M93.5 61C83.283 61 75 52.839 75 42.772V3h37v39.772C112 52.839 103.717 61 93.5 61z"/>
            <path fill="#7FB6E9" d="M130.5 61c-10.217 0-18.5-8.161-18.5-18.228V3h37v39.772C149 52.839 140.718 61 130.5 61z"/>
            <path fill="#FFF" d="M167.5 61c-10.217 0-18.5-8.161-18.5-18.228V3h37v39.772C186 52.839 177.717 61 167.5 61z"/>
            <path fill="#7FB6E9" d="M204.5 61c-10.218 0-18.5-8.161-18.5-18.228V3h26.908L223 42.772C223 52.839 214.717 61 204.5 61z"/>
            <path fill="#FFF" d="M19.5 61C29.717 61 38 52.839 38 42.772V3H11.09L1 42.772C1 52.839 9.283 61 19.5 61z"/>
        </g>
        <path fill="#B1B1B1" d="M37 77c.826 0 1.53.294 2 1 .706.47 1 1.175 1 2s-.294 1.532-1 2c-.47.706-1.174 1-2 1-4 0-6 2-6 6v18c0 4-1 7-3 9 2 2 3 5 3 9v18c0 4 2 6 6 6 .826 0 1.53.294 2 1 .706.469 1 1.175 1 2s-.294 1.53-1 2c-.47.706-1.174 1-2 1-8 0-12-4-12-12v-18c0-4-2-6-6-6-.825 0-1.53-.294-2-1-.706-.469-1-1.175-1-2 0-.824.294-1.53 1-2 .47-.705 1.175-1 2-1 4 0 6-2 6-6V89c0-8 4-12 12-12zm12 54a2.89 2.89 0 0 1-2.12-.882A2.886 2.886 0 0 1 46 128c0-.65.188-1.237.562-1.762l27-39C74.112 86.412 74.924 86 76 86c.825 0 1.531.294 2.119.882.587.586.881 1.293.881 2.118v36h6c.825 0 1.53.294 2.118.88.588.589.882 1.295.882 2.12 0 .825-.294 1.532-.882 2.118A2.889 2.889 0 0 1 85 131H79v12c0 .825-.294 1.53-.881 2.118a2.885 2.885 0 0 1-2.12.882 2.883 2.883 0 0 1-2.118-.882A2.884 2.884 0 0 1 73 143V131H49zm24-6V99l-18 26h18zm21-9c0-12 2.462-20.537 7.388-25.612 2.925-2.926 6.461-4.388 10.611-4.388s7.688 1.462 10.613 4.388C127.538 95.463 130 104 130 116c0 12-2.462 20.538-7.388 25.613-2.925 2.924-6.462 4.387-10.613 4.387-4.15 0-7.686-1.463-10.611-4.387C96.462 136.538 94 128 94 116zm18-24c-2.476 0-4.6.888-6.375 2.662C101.875 98.888 100 106 100 116c0 10 1.875 17.113 5.625 21.338 1.774 1.775 3.9 2.662 6.374 2.662 2.476 0 4.6-.887 6.376-2.662C122.125 133.113 124 126 124 116c0-10-1.875-17.112-5.625-21.338C116.6 92.888 114.475 92 112 92zm26 39a2.889 2.889 0 0 1-2.118-.882A2.887 2.887 0 0 1 135 128c0-.65.189-1.237.563-1.762l27-39C163.112 86.412 163.924 86 165 86c.825 0 1.531.294 2.119.882.587.586.881 1.293.881 2.118v36h6c.825 0 1.53.294 2.12.88.586.589.88 1.295.88 2.12a2.89 2.89 0 0 1-.88 2.118A2.893 2.893 0 0 1 174 131h-6v12c0 .825-.294 1.53-.881 2.118a2.885 2.885 0 0 1-2.12.882 2.883 2.883 0 0 1-2.117-.882A2.885 2.885 0 0 1 162 143V131h-24zm24-6V99l-18 26h18zm36-36v18c0 4 1.999 6 6 6 .825 0 1.53.294 2 1 .706.47 1 1.175 1 2s-.294 1.532-1 2c-.47.707-1.175 1-2 1-4.001 0-6 2-6 6v18c0 8-4 12-12 12-.825 0-1.532-.295-2-1-.707-.47-1-1.175-1-2s.293-1.532 1-2c.468-.707 1.175-1 2-1 4 0 6-2.002 6-6v-18c0-4 1-7 3-9-2-2-3-5-3-9V89c0-4-2-6-6-6-.825 0-1.532-.294-2-1-.707-.468-1-1.175-1-2s.293-1.53 1-2c.468-.706 1.175-1 2-1 8 0 12 4 12 12z"/>
    </g>
</svg>
