<svg xmlns="http://www.w3.org/2000/svg" width="34" height="34" viewBox="0 0 34 34">
    <g fill="none" fill-rule="evenodd" transform="translate(1 1)">
        <path fill="#77777E" d="M13.522 10.074c-.977.044-1.823.283-2.507.963-.686.685-.922 1.534-.966 2.5-.028.604-.188 5.162.277 6.357a3.029 3.029 0 0 0 1.747 1.742c.38.147.813.248 1.45.276 5.315.241 7.286.11 8.117-2.018.148-.379.249-.812.277-1.446.243-5.33-.039-6.485-.966-7.41-.735-.734-1.599-1.233-7.429-.964m.049 10.766c-.582-.026-.898-.122-1.109-.204a1.951 1.951 0 0 1-1.133-1.13c-.355-.908-.237-5.222-.205-5.92.03-.684.17-1.308.652-1.79.597-.596 1.368-.888 6.62-.651.686.031 1.312.17 1.795.65.597.596.894 1.373.652 6.604-.026.582-.123.897-.205 1.107-.54 1.385-1.783 1.577-7.067 1.334m4.883-8.026a.716.716 0 1 0 1.432-.002.716.716 0 0 0-1.432.002m-5.536 3.179a3.062 3.062 0 0 0 3.066 3.058 3.062 3.062 0 0 0 3.065-3.058 3.062 3.062 0 0 0-3.065-3.058 3.062 3.062 0 0 0-3.066 3.058m1.076 0c0-1.096.89-1.985 1.99-1.985 1.098 0 1.99.889 1.99 1.985a1.988 1.988 0 0 1-1.99 1.985c-1.1 0-1.99-.889-1.99-1.985"/>
        <circle cx="16" cy="16" r="16" stroke="#77777E"/>
    </g>
</svg>
