<svg xmlns="http://www.w3.org/2000/svg" width="16" height="16" viewBox="0 0 16 16">
    <path fill="#222" fill-rule="evenodd" d="M4.696.098c-1.302.06-2.431.377-3.342 1.285C.439 2.295.124 3.428.066 4.717c-.038.805-.251 6.882.369 8.475a4.038 4.038 0 0 0 2.328 2.323c.507.196 1.085.33 1.933.368 7.088.321 9.716.146 10.824-2.69.197-.506.332-1.083.37-1.929.323-7.107-.053-8.647-1.288-9.881C13.622.405 12.469-.26 4.696.098m.065 14.356c-.776-.035-1.198-.164-1.478-.273a2.602 2.602 0 0 1-1.51-1.507c-.474-1.21-.317-6.962-.275-7.892.042-.912.227-1.745.87-2.388.796-.794 1.824-1.183 8.827-.867.914.041 1.749.225 2.394.867.796.794 1.19 1.83.869 8.805-.035.775-.165 1.195-.274 1.475-.72 1.847-2.378 2.103-9.423 1.78m6.511-10.702a.954.954 0 0 0 1.91 0 .954.954 0 0 0-.955-.953.954.954 0 0 0-.955.953M3.891 7.99a4.083 4.083 0 0 0 4.087 4.078 4.082 4.082 0 0 0 4.087-4.078 4.082 4.082 0 0 0-4.087-4.076A4.082 4.082 0 0 0 3.891 7.99m1.434 0a2.65 2.65 0 0 1 2.653-2.646 2.65 2.65 0 0 1 2.653 2.646 2.65 2.65 0 0 1-2.653 2.648A2.65 2.65 0 0 1 5.325 7.99"/>
</svg>
