<svg xmlns="http://www.w3.org/2000/svg" width="260" height="218" viewBox="0 0 260 218">
    <g fill="none" fill-rule="evenodd">
        <g fill="#2962FF" fill-opacity=".2">
            <path d="M192.817 42.166a8.813 8.813 0 0 1-12.492 0c-3.45-3.461-3.45-9.073 0-12.534a8.815 8.815 0 0 1 12.492 0c3.45 3.461 3.45 9.073 0 12.534m26.35-9.8L190.92 4.031A13.689 13.689 0 0 0 179.122.162L105.92 11.54a13.691 13.691 0 0 0-7.6 3.868l-88.304 88.586c-5.356 5.373-5.356 14.085 0 19.46l90.107 90.394c5.357 5.373 14.041 5.373 19.397 0l88.304-88.587a13.762 13.762 0 0 0 3.856-7.623l11.342-73.435a13.793 13.793 0 0 0-3.857-11.837"/>
            <path d="M210.994 42.166a8.814 8.814 0 0 1-12.494 0c-3.449-3.461-3.449-9.073 0-12.534a8.817 8.817 0 0 1 12.494 0c3.45 3.461 3.45 9.073 0 12.534m26.35-9.8L209.096 4.031a13.693 13.693 0 0 0-11.8-3.869l-73.2 11.378a13.691 13.691 0 0 0-7.599 3.868l-88.304 88.586c-5.356 5.373-5.356 14.085 0 19.46l90.107 90.394c5.357 5.373 14.041 5.373 19.397 0l88.304-88.587a13.762 13.762 0 0 0 3.856-7.623l11.34-73.435a13.788 13.788 0 0 0-3.855-11.837"/>
            <path d="M229.172 42.166a8.814 8.814 0 0 1-12.494 0c-3.45-3.461-3.45-9.073 0-12.534a8.817 8.817 0 0 1 12.494 0c3.45 3.461 3.45 9.073 0 12.534m26.348-9.8L227.274 4.031a13.693 13.693 0 0 0-11.8-3.869l-73.2 11.378a13.691 13.691 0 0 0-7.599 3.868l-88.304 88.586c-5.356 5.373-5.356 14.085 0 19.46l90.106 90.394c5.358 5.373 14.042 5.373 19.398 0l88.305-88.587a13.771 13.771 0 0 0 3.855-7.623l11.34-73.435a13.788 13.788 0 0 0-3.855-11.837"/>
        </g>
        <path fill="#2962FF" d="M17.049 59.315c5.455 0 7.37-2.613 7.37-6.911 0-4.235-1.915-6.759-7.37-6.759h-3.886v13.67h3.886zM0 75.92V39.84c0-3.55 1.923-5.477 5.463-5.477h9.283c17.448 0 23.1 6.005 23.1 18.257 0 12.255-5.652 17.947-22.946 17.947h-1.737v5.35c0 3.55-1.922 5.476-5.463 5.476H5.463C1.923 81.394 0 79.467 0 75.919z"/>
        <path fill="#222" d="M74.246 57.9c0-7.951-3.835-12.422-9.334-12.422-5.694 0-9.44 4.45-9.44 12.422 0 8.3 3.684 12.575 9.399 12.575 5.56 0 9.375-4.275 9.375-12.575m-31.72.044C42.527 41.184 53.139 34 65 34c11.669 0 22.363 7.185 22.363 23.944 0 17.084-10.63 23.937-22.492 23.937-11.863 0-22.344-6.853-22.344-23.937M111.927 59.315c5.455 0 7.371-2.613 7.371-6.911 0-4.235-1.916-6.759-7.37-6.759h-3.887v13.67h3.886zM94.878 75.92V39.84c0-3.55 1.924-5.477 5.463-5.477h9.283c17.448 0 23.1 6.005 23.1 18.257 0 12.255-5.652 17.947-22.946 17.947h-1.737v5.35c0 3.55-1.922 5.476-5.463 5.476h-2.237c-3.54 0-5.463-1.927-5.463-5.475z"/>
        <path fill="#FFF" d="M94.879 121.117V101.25c0-3.548 1.92-5.476 5.463-5.476h2.237c3.54 0 5.461 1.928 5.461 5.476v19.8c0 7.54 2.025 10.662 7.1 10.662 5.116 0 7.143-3.122 7.143-10.595V101.25c0-3.548 1.92-5.476 5.463-5.476h2.324c3.54 0 5.463 1.928 5.463 5.476v19.955c0 15.038-6.743 22.066-20.393 22.066s-20.261-6.917-20.261-22.154"/>
        <path fill="#222" d="M161.245 120.726c5.455 0 7.371-2.615 7.371-6.913 0-4.234-1.916-6.757-7.37-6.757h-3.887v13.67h3.886zm-17.049 16.602V101.25c0-3.548 1.924-5.476 5.463-5.476h9.283c17.448 0 23.1 6.006 23.1 18.258 0 12.253-5.652 17.946-22.946 17.946h-1.737v5.35c0 3.549-1.922 5.476-5.463 5.476h-2.237c-3.54 0-5.463-1.927-5.463-5.476zM43.528 196.694c-2.039-3.26-.862-5.934 2.639-6.89l1.041-.285c2.926-.792 4.717.168 6.518 2.018 2.127 2.2 4.719 3.38 7.762 3.38 3.564 0 5.776-1.531 5.776-4.004 0-7.121-24.09-2.933-24.09-20.076 0-8.53 7.246-14.076 17.768-14.076 7.837 0 14.311 2.46 17.262 7.102 2.409 3.722 1.366 6.436-2.569 7.232l-1.048.23c-4.073.804-5.397-.994-7.45-2.66-1.649-1.395-3.458-2.129-5.68-2.129-3.256 0-5.336 1.48-5.336 3.798 0 8.195 24.442 2.93 24.442 19.954 0 8.753-7.95 14.395-18.968 14.395-7.71 0-14.96-2.986-18.067-7.989M94.139 198.74v-29.92h-4.661c-3.54 0-5.462-1.928-5.462-5.477v-.681c0-3.549 1.922-5.477 5.462-5.477h22.374c3.54 0 5.463 1.928 5.463 5.477v.68c0 3.55-1.923 5.478-5.463 5.478h-4.596v29.92c0 3.548-1.922 5.476-5.463 5.476h-2.191c-3.543 0-5.463-1.928-5.463-5.476M151.246 180.722c0-7.953-3.836-12.422-9.334-12.422-5.694 0-9.44 4.45-9.44 12.422 0 8.3 3.684 12.574 9.399 12.574 5.56 0 9.375-4.274 9.375-12.574m-31.72.043c0-16.758 10.611-23.943 22.474-23.943 11.668 0 22.364 7.185 22.364 23.943 0 17.085-10.63 23.938-22.493 23.938-11.863 0-22.344-6.853-22.344-23.938M196.348 174.372c0-4.014-1.937-6.234-7.393-6.234h-3.915v12.542h3.915c5.456 0 7.393-2.202 7.393-6.308zm11.749 23.342c2.17 4.236 1.033 6.502-3.986 6.502h-2.449c-3.126 0-5.12-1.389-6.288-4.24l-4.74-10.04c-.526.02-1.064.03-1.613.03h-3.915v8.774c0 3.548-1.922 5.476-5.463 5.476h-2.301c-3.541 0-5.463-1.928-5.463-5.476v-36.078c0-3.549 1.922-5.477 5.463-5.477h11.94c15.87 0 20.292 6.006 20.292 16.106 0 5.731-2.161 10.741-7.317 13.737l5.84 10.686z"/>
        <path fill="#2962FF" d="M217.244 198.74v-36.078c0-3.549 1.922-5.477 5.463-5.477h20.594c3.541 0 5.463 1.928 5.463 5.477v.68c0 3.55-1.922 5.478-5.463 5.478h-12.938v6.971h11.771c3.542 0 5.463 1.705 5.463 4.763v.065c0 3.103-1.921 4.787-5.463 4.787h-11.771v7.22H243.3c3.541 0 5.463 1.928 5.463 5.477v.637c0 3.548-1.922 5.476-5.463 5.476h-20.594c-3.541 0-5.463-1.928-5.463-5.476"/>
    </g>
</svg>
