<svg xmlns="http://www.w3.org/2000/svg" width="98" height="20" viewBox="0 0 98 20">
    <g fill="#8A8A8A" fill-rule="evenodd">
        <path d="M12.813 11.09a3.993 3.993 0 0 0-1.087-1.175 10.424 10.424 0 0 0-1.27-.78 30.632 30.632 0 0 0-1.323-.652 11.92 11.92 0 0 1-1.075-.554c-.382-.227-.628-.449-.728-.65a.437.437 0 0 1-.05-.195v-.068c0-.21.063-.332.23-.45.243-.174.545-.258.924-.258.228 0 .443.026.646.073a3.202 3.202 0 0 1 .903.315c.071.038.135.083.2.125.046.03.096.055.138.086.106.076.296.242.296.242l1.372-1.357c-.14-.191-.465-.508-.465-.508-.577-.54-1.289-.882-2.126-1.02a5.405 5.405 0 0 0-.88-.069c-.924 0-1.725.22-2.38.653C5.38 5.347 4.98 6.1 4.98 7.029v.096c0 .348.072.679.21.993.106.244.251.478.44.7.368.431.83.792 1.376 1.072.446.23.933.478 1.46.745a49.94 49.94 0 0 1 1.43.749 2.7 2.7 0 0 1 .845.707c.045.057.084.114.117.173.1.175.149.36.149.56h-.001v.08c0 .367-.317.755-.688 1-.394.26-1.083.414-1.613.414H2.29V4.846l2.693-2.664V2.18L3.942 0 0 3.9v11.516c0 .641.526 1.16 1.174 1.16h7.409c.078 0 .153-.004.23-.007l.093-.002c.047-.003.096-.003.143-.006.063-.004.124-.012.186-.018l.165-.016c.028-.004.058-.005.086-.01h.003c.05-.006.096-.016.144-.024l.167-.028c.038-.007.077-.011.115-.02h.005c.022-.005.043-.01.065-.017.117-.025.234-.052.347-.085.004 0 .006-.002.009-.003a5.005 5.005 0 0 0 1.458-.688c.977-.68 1.472-1.614 1.472-2.774v-.138a3.13 3.13 0 0 0-.458-1.65M62.947 13.043v-.14a3.17 3.17 0 0 0-.455-1.655 3.996 3.996 0 0 0-1.079-1.18 10.33 10.33 0 0 0-1.26-.784c-.428-.227-.87-.447-1.314-.655-.391-.18-.75-.368-1.066-.556-.506-.304-.773-.598-.773-.848v-.069c0-.21.062-.333.228-.451.242-.175.542-.26.918-.26.226 0 .44.027.64.074a3.002 3.002 0 0 1 1.526.771l1.362-1.362c-.139-.192-.461-.51-.461-.51-.764-.723-1.765-1.094-2.983-1.094-.918 0-1.713.22-2.363.656-.751.5-1.148 1.258-1.148 2.19v.097c0 .62.217 1.19.644 1.698.365.434.824.797 1.366 1.078.443.23.926.48 1.449.747.562.288 1.026.534 1.42.752.336.185.618.424.84.71.176.229.262.47.262.736v.082c0 .448-.181.786-.57 1.062-.48.34-1.04.505-1.713.505-.695 0-1.269-.127-1.707-.378-.542-.307-1.342-1.074-1.59-1.769l-1.499 1.497c.047.209.7 1.038.7 1.038.95 1.149 2.283 1.732 3.96 1.732 1.253 0 2.33-.313 3.205-.929.97-.683 1.46-1.62 1.46-2.785"/>
        <path d="M53.62 15.57l-.008-.008-.006-.008c-.457-.577-.666-.905-.768-1.107a1.173 1.173 0 0 1-1.407-1.145V8.035h1.993V5.752H51.43V3.964h-2.293v9.452h.006a3.444 3.444 0 0 0 .361 1.426l.016.033c.031.06.064.12.099.177l.04.068c.036.056.072.113.11.167l.001.001h.001c.062.088.128.174.197.255l.003.003c.14.162.293.312.46.445v.001c.008.007.016.012.025.018.077.06.155.12.237.173.025.017.05.03.076.047a.2.2 0 0 1 .012.006c.063.04.126.079.193.115.034.018.07.032.104.05a3.417 3.417 0 0 0 1.049.32l.021.003c.15.02.302.033.458.033.122 0 .242-.008.362-.021.028-.003.057-.008.085-.01.098-.014.195-.03.291-.051l.058-.013c.334-.079.647-.209.936-.376a5.734 5.734 0 0 1-.72-.715M43.326 16.036c-3.124 0-5.666-2.547-5.666-5.676 0-3.13 2.542-5.675 5.666-5.675 1.865 0 3.61.92 4.67 2.46l.049.071-1.506 1.511-4.741 4.75c.472.234.997.356 1.528.356.951 0 1.838-.38 2.5-1.07l2.236-2.242v2.954l-.017.027a5.656 5.656 0 0 1-4.719 2.534zm0-9.148a3.474 3.474 0 0 0-3.092 5.04l4.657-4.666a3.466 3.466 0 0 0-1.565-.374zM32.746 16.036c-3.124 0-5.666-2.547-5.666-5.676 0-3.13 2.542-5.675 5.666-5.675 1.865 0 3.61.92 4.67 2.46l.049.071-1.505 1.511-4.743 4.75a3.47 3.47 0 0 0 1.529.356c.95 0 1.838-.38 2.5-1.07l1.519-1.523.033.2c.112.69.333 1.357.655 1.982l.028.055-.035.05a5.66 5.66 0 0 1-4.7 2.509zm0-9.148a3.474 3.474 0 0 0-3.093 5.04l4.659-4.666a3.465 3.465 0 0 0-1.566-.374zM21.79 16.036l-1.526-3.144-1.527 3.144h-.934l-5.07-10.81h2.394l3.143 6.98.838-1.827-2.32-5.154h2.392l1.088 2.407 1.082-2.407h2.392l-2.32 5.154.836 1.828 3.145-6.961h2.394l-5.068 10.79zM84.288 3.964h-4.484l2.243 4.685z"/>
        <path d="M85.08 5.45L84.1 7.516c.899.62 1.49 1.651 1.49 2.82 0 1.892-1.55 3.432-3.455 3.432s-3.455-1.54-3.455-3.432c0-1.2.623-2.256 1.563-2.87l-.977-2.06c-1.713.987-2.87 2.824-2.87 4.93 0 3.143 2.574 5.701 5.74 5.701 3.163 0 5.737-2.558 5.737-5.701 0-2.075-1.123-3.887-2.795-4.884M97.935 15.492V3.98L94.04.073l-1.025 2.175v.015l2.66 2.663v9.462H92.2a1.158 1.158 0 0 1-1.148-1.159V8.015h1.965V5.752h-1.965V3.98h-2.26v9.362h.006a3.397 3.397 0 0 0 1.032 2.339l.028.025c.067.065.138.128.21.187.016.013.033.024.05.036.067.054.137.106.208.154l.074.045c.067.041.134.083.203.12.033.018.069.033.103.05.063.03.126.063.19.09.044.018.09.032.134.049.059.02.116.045.176.063.054.016.11.028.165.042.053.013.105.03.159.04.069.014.14.023.21.032.042.006.083.015.125.019.114.012.23.018.346.018.022 0 .044-.004.067-.004l.641.004h3.855c.64 0 1.16-.52 1.16-1.16M69.741 4.672c-1.284 0-2.47.421-3.424 1.132V4.672H64.04V19.82h2.278v-4.981a5.71 5.71 0 0 0 3.424 1.132c3.15 0 5.704-2.53 5.704-5.65 0-3.12-2.554-5.65-5.704-5.65m0 9.072a3.441 3.441 0 0 1-3.424-2.996v-.85A3.44 3.44 0 0 1 69.741 6.9c1.908 0 3.454 1.532 3.454 3.421 0 1.89-1.546 3.422-3.454 3.422"/>
    </g>
</svg>
