<svg xmlns="http://www.w3.org/2000/svg" width="34" height="34" viewBox="0 0 34 34">
    <g fill="none" fill-rule="evenodd">
        <path fill="#231916" d="M22.848 29.373c-.295.12-.617.187-.955.187v.003H5.573a1.262 1.262 0 0 1-1.252-1.262V11.789c.042-.577.277-1.1.643-1.505l5.281-5.27a2.54 2.54 0 0 1 .79-.515L9.059.311a4.172 4.172 0 0 0-1.281.827L1.15 7.758A4.157 4.157 0 0 0 0 10.632v19.065c0 .144.008.286.022.426l.008.055c.014.12.03.241.055.359.006.032.016.062.024.094.023.102.047.205.078.304.014.047.034.091.05.137.028.083.056.166.09.246.024.057.054.112.08.168.031.065.06.131.094.194.037.07.08.135.12.201.03.047.056.096.086.141.054.078.111.153.17.228.023.03.044.062.068.091.07.085.144.165.22.244.015.016.03.035.046.05.086.087.177.17.27.25l.022.019a4.157 4.157 0 0 0 2.613.967h.017c.015 0 .029.003.044.003h19.069c.558 0 1.09-.112 1.576-.31l-1.974-4.19z"/>
        <path fill="#007BBE" d="M33.861 3.75l-.008-.057a4.15 4.15 0 0 0-.055-.356c-.007-.036-.018-.07-.026-.104-.024-.1-.047-.199-.076-.295-.015-.046-.034-.09-.05-.137-.029-.082-.056-.165-.09-.245-.024-.058-.055-.113-.081-.17-.03-.065-.06-.13-.093-.193-.038-.07-.08-.136-.123-.204-.028-.046-.054-.093-.083-.137-.053-.08-.112-.154-.17-.23-.024-.03-.044-.06-.068-.09a3.95 3.95 0 0 0-.22-.243c-.015-.016-.03-.035-.046-.05a4.177 4.177 0 0 0-.27-.25L32.381.97a4.157 4.157 0 0 0-2.613-.967H29.75C29.736.001 29.721 0 29.706 0H10.637c-.558 0-1.09.112-1.576.31l1.974 4.19c.295-.121.617-.188.955-.188V4.31h16.309c.698 0 1.263.566 1.263 1.263v16.51a2.512 2.512 0 0 1-.643 1.505l-5.28 5.272a2.548 2.548 0 0 1-.79.513l1.975 4.19c.478-.197.91-.48 1.281-.829l6.629-6.62a4.157 4.157 0 0 0 1.149-2.872V4.176c0-.143-.008-.285-.022-.425"/>
        <path fill="#231916" d="M23.47 17.801a6.49 6.49 0 0 0-1.756-1.92 16.155 16.155 0 0 0-1.972-1.226 44.748 44.748 0 0 0-1.471-.743l-.12-.058c-.143-.069-.287-.138-.433-.206a18.143 18.143 0 0 1-1.587-.826c-.948-.571-.976-.903-.976-.938v-.105c0-.188.03-.25.174-.353.295-.213.674-.316 1.158-.316.313 0 .597.032.905.106a4.198 4.198 0 0 1 2.115 1.068l.202.19 2.626-2.626-.133-.184c-.233-.322-.73-.813-.754-.836-1.248-1.181-2.874-1.78-4.833-1.78-1.48 0-2.77.359-3.833 1.068-1.265.846-1.934 2.119-1.934 3.683v.147c0 1.046.364 2.007 1.08 2.855a7.157 7.157 0 0 0 2.207 1.743c.314.165.641.334.981.509l.009.005 1.222.627c.832.426 1.536.799 2.154 1.14.462.255.85.583 1.153.975.211.272.314.556.314.866v.126c0 .552-.208.935-.695 1.28-.658.466-1.434.692-2.373.692-.987 0-1.794-.175-2.399-.521-.758-.43-1.812-1.455-2.193-2.364v-.003L9.42 22.763c.287.464.765 1.08.916 1.271 1.534 1.852 3.672 2.791 6.356 2.791 1.997 0 3.72-.502 5.125-1.492 1.596-1.122 2.405-2.664 2.405-4.583v-.212c0-.986-.254-1.906-.753-2.737"/>
    </g>
</svg>
