<svg xmlns="http://www.w3.org/2000/svg" width="20" height="16" viewBox="0 0 20 16">
    <path fill="#00A9F0" fill-rule="evenodd" d="M20 1.894a8.314 8.314 0 0 1-2.357.636A4.063 4.063 0 0 0 19.448.295a8.308 8.308 0 0 1-2.606.98A4.129 4.129 0 0 0 13.847 0C11.58 0 9.744 1.808 9.744 4.04c0 .315.036.624.106.92A11.711 11.711 0 0 1 1.393.739a3.975 3.975 0 0 0-.556 2.03c0 1.402.724 2.639 1.825 3.363a4.132 4.132 0 0 1-1.858-.505v.05c0 1.958 1.413 3.59 3.291 3.961a4.172 4.172 0 0 1-1.853.07c.522 1.604 2.037 2.772 3.833 2.805a8.316 8.316 0 0 1-5.096 1.729c-.332 0-.658-.02-.979-.056A11.75 11.75 0 0 0 6.29 16c7.548 0 11.674-6.155 11.674-11.493 0-.175-.003-.349-.011-.523A8.251 8.251 0 0 0 20 1.894"/>
</svg>
