<svg xmlns="http://www.w3.org/2000/svg" width="576" height="117" viewBox="0 0 576 117">
    <g fill="none" fill-rule="evenodd">
        <path fill="#231916" d="M75.308 64.877a23.4 23.4 0 0 0-6.388-6.875c-2.223-1.607-4.733-3.137-7.46-4.564a180.393 180.393 0 0 0-7.783-3.815c-2.318-1.055-4.445-2.147-6.314-3.24-2.245-1.328-3.694-2.623-4.279-3.804-.195-.391-.293-.772-.293-1.138v-.4c0-1.228.366-1.94 1.347-2.632 1.433-1.014 3.208-1.507 5.434-1.507 1.34 0 2.604.15 3.793.426 1.08.19 2.173.504 3.256.92.69.265 1.378.565 2.052.92.42.225.795.487 1.183.736.268.172.557.32.807.503.62.444 1.737 1.414 1.737 1.414l8.063-7.936c-.821-1.119-2.73-2.972-2.73-2.972-3.393-3.16-7.575-5.163-12.497-5.967a31.916 31.916 0 0 0-5.166-.405h-.001c-5.435 0-10.142 1.286-13.993 3.819-4.447 2.92-6.798 7.333-6.798 12.762v.561c0 2.033.422 3.97 1.228 5.806a16.38 16.38 0 0 0 2.588 4.09c2.163 2.528 4.88 4.642 8.087 6.277 2.624 1.345 5.485 2.797 8.58 4.356a294.017 294.017 0 0 1 8.411 4.382c1.986 1.077 3.657 2.47 4.966 4.14.26.33.49.667.687 1.009a6.473 6.473 0 0 1 .873 3.272h-.004v.478c0 2.14-1.862 4.415-4.042 5.848-2.316 1.514-6.364 2.418-9.48 2.418h-37.72V28.352l15.833-15.588v-.014L23.173 0 0 22.82v67.365c0 3.75 3.089 6.788 6.9 6.788h43.545c.46 0 .9-.028 1.35-.045.184-.004.366-.011.553-.014.276-.015.562-.017.837-.033.37-.023.729-.072 1.093-.106.323-.03.648-.061.97-.093.167-.02.34-.027.505-.052.007 0 .01 0 .02-.003.288-.035.562-.097.846-.14.33-.053.652-.112.978-.164.225-.044.457-.069.678-.115.01-.003.021-.003.031-.007.128-.025.253-.062.38-.097a30.53 30.53 0 0 0 2.043-.496c.001-.002.003-.002.003-.002l.046-.016a29.492 29.492 0 0 0 6.595-2.778 27.98 27.98 0 0 0 1.977-1.25C75.09 87.584 78 82.124 78 75.335v-.807c0-3.476-.904-6.725-2.692-9.651M369.973 76.3v-.812c0-3.489-.896-6.75-2.672-9.69a23.418 23.418 0 0 0-6.342-6.904c-2.204-1.613-4.697-3.149-7.402-4.582a177.477 177.477 0 0 0-7.727-3.832c-2.302-1.058-4.413-2.153-6.268-3.251-2.97-1.781-4.54-3.497-4.54-4.962v-.404c0-1.23.365-1.947 1.339-2.642 1.421-1.018 3.184-1.513 5.394-1.513 1.33 0 2.584.15 3.768.427a17.7 17.7 0 0 1 5.267 1.85 17.762 17.762 0 0 1 3.7 2.663l8.002-7.968c-.814-1.125-2.71-2.986-2.71-2.986-4.492-4.229-10.373-6.397-17.53-6.397-5.4 0-10.069 1.29-13.894 3.834-4.41 2.93-6.743 7.363-6.743 12.814v.565c0 3.626 1.273 6.968 3.785 9.936 2.145 2.54 4.845 4.662 8.026 6.303 2.604 1.352 5.444 2.81 8.517 4.373a296.367 296.367 0 0 1 8.349 4.4c1.972 1.083 3.632 2.48 4.932 4.158 1.036 1.332 1.546 2.739 1.546 4.299v.48c0 2.622-1.068 4.597-3.356 6.213-2.82 1.987-6.115 2.952-10.068 2.952-4.082 0-7.454-.74-10.033-2.21-3.184-1.793-7.884-6.284-9.34-10.347-2.153 2.135-8.81 8.758-8.81 8.758.273 1.221 4.11 6.07 4.11 6.07 5.587 6.722 13.419 10.132 23.276 10.132 7.364 0 13.7-1.827 18.838-5.431 5.698-3.996 8.586-9.48 8.586-16.296"/>
        <path fill="#231916" d="M326.338 98.898l-.04-.05-.037-.044c-2.683-3.377-3.912-5.297-4.514-6.48l-.091.014a6.352 6.352 0 0 1-1.27.135c-3.818 0-6.909-3.065-6.909-6.849V54.82h11.714V41.457h-11.714V31H300v55.296h.034a20.057 20.057 0 0 0 .675 4.537c.117.437.243.871.39 1.297.297.862.652 1.7 1.061 2.508.03.064.057.126.09.191.184.353.378.697.582 1.038.08.131.16.26.24.394.21.331.42.663.647.98l.002.007h.006c.362.515.75 1.013 1.16 1.49.005.002.01.01.015.015a20.207 20.207 0 0 0 2.704 2.604c0 .006.002.006.002.007.047.038.093.07.143.105.452.356.913.698 1.396 1.012v.002c.147.096.298.176.445.271.023.011.045.024.07.038.373.228.744.461 1.135.67h.002c.199.105.408.191.612.292a20.146 20.146 0 0 0 5.17 1.718 32.401 32.401 0 0 0 1.118.172c.883.116 1.774.194 2.688.194.717 0 1.426-.047 2.127-.122.17-.018.337-.044.504-.063a21.347 21.347 0 0 0 1.71-.294c.11-.026.229-.049.343-.078a20.195 20.195 0 0 0 5.497-2.199c-1.499-1.26-2.928-2.624-4.23-4.184M254.651 93.81c-18.362 0-33.3-14.896-33.3-33.203 0-18.307 14.938-33.202 33.3-33.202 10.96 0 21.216 5.381 27.444 14.392l.29.419-8.847 8.839-27.871 27.79a20.446 20.446 0 0 0 8.984 2.08c5.59 0 10.805-2.225 14.692-6.261l13.143-13.117V78.83l-.101.154a33.285 33.285 0 0 1-27.734 14.826zm0-53.518c-11.237 0-20.376 9.115-20.376 20.315 0 3.185.76 6.34 2.205 9.176l27.372-27.298a20.45 20.45 0 0 0-9.201-2.193zM192.466 93.81c-18.364 0-33.304-14.896-33.304-33.203 0-18.307 14.94-33.202 33.304-33.202 10.959 0 21.22 5.381 27.448 14.392l.287.419-8.846 8.839-27.876 27.79a20.47 20.47 0 0 0 8.987 2.08c5.589 0 10.805-2.225 14.695-6.261l8.926-8.91.193 1.172a38.794 38.794 0 0 0 3.851 11.59l.166.325-.204.297a33.313 33.313 0 0 1-27.627 14.673zm0-53.518c-11.239 0-20.379 9.115-20.379 20.315 0 3.185.763 6.34 2.203 9.176l27.38-27.298a20.446 20.446 0 0 0-9.204-2.193zM128.073 93.81l-8.97-18.392-8.977 18.393h-5.49L74.839 30.568H88.91l18.47 40.84 4.928-10.69-13.634-30.15h14.057l6.397 14.077 6.356-14.077h14.058l-13.634 30.15 4.917 10.692 18.48-40.721h14.073L133.593 93.81z"/>
        <path fill="#007BBF" d="M495.405 23.19h-26.35l13.178 27.405z"/>
        <path fill="#231916" d="M500.059 31.885l-5.75 12.08c5.28 3.627 8.756 9.658 8.756 16.493 0 11.07-9.11 20.08-20.305 20.08-11.198 0-20.31-9.01-20.31-20.08 0-7.02 3.66-13.194 9.19-16.786l-5.743-12.05c-10.068 5.774-16.87 16.518-16.87 28.836 0 18.388 15.13 33.353 33.733 33.353 18.597 0 33.726-14.965 33.726-33.353 0-12.138-6.605-22.74-16.427-28.573M575.616 90.628v-67.34L552.726.426l-6.025 12.725v.088l15.633 15.581v55.349h-20.42c-3.73-.037-6.744-3.053-6.744-6.777V46.885h11.547V33.65H535.17v-10.36h-13.282v54.766h.033a19.814 19.814 0 0 0 3.638 10.852 20.707 20.707 0 0 0 1.214 1.55c.386.441.787.874 1.213 1.283.05.052.11.098.163.147.397.38.81.749 1.238 1.095.091.074.192.138.288.211.398.313.807.615 1.228.897.144.093.293.173.436.263.392.242.784.484 1.193.706.194.102.4.19.602.288.372.18.74.368 1.123.527.254.106.521.192.781.287.347.123.684.263 1.037.37.315.096.645.166.971.246.308.077.616.172.93.235.407.083.82.132 1.235.188.246.032.487.085.736.109.668.067 1.346.105 2.034.105.132 0 .26-.02.392-.025l3.77.025h22.66c3.764 0 6.813-3.037 6.813-6.786M409.909 27.33c-7.552 0-14.52 2.465-20.126 6.622v-6.621h-13.391v88.616h13.39v-29.14c5.607 4.16 12.575 6.622 20.127 6.622 18.512 0 33.52-14.795 33.52-33.049 0-18.253-15.008-33.05-33.52-33.05m0 53.067c-10.354 0-18.88-7.649-20.126-17.526v-4.979c1.246-9.88 9.772-17.527 20.126-17.527 11.212 0 20.3 8.96 20.3 20.015s-9.088 20.017-20.3 20.017"/>
    </g>
</svg>
